<svg viewBox="0 0 32 32" xmlns="http://www.w3.org/2000/svg" aria-label="BNB">
<circle cx="16" cy="16" r="16" fill="#F3BA2F"/>
<path fill="#FFFFFF" d="M12.116 14.404L16 10.52l3.886 3.886 2.26-2.26L16 6l-6.144 6.144 2.26 2.26zM6 16l2.26-2.26L10.52 16l-2.26 2.26L6 16zm6.116 1.596L16 21.48l3.886-3.886 2.262 2.259L16 26l-6.144-6.144-.003-.003 2.263-2.257zM21.48 16l2.26-2.26L26 16l-2.26 2.26L21.48 16zM18.305 15.998L16 13.69l-1.706 1.706 2.305 2.304L18.305 16l-.005-.002.005.005-2.305 2.305-1.706-1.706L13.7 16l2.299-2.302L18.305 16z"/>
</svg>
