<svg width="799" height="799" viewBox="0 0 799 799" fill="none" xmlns="http://www.w3.org/2000/svg">
<g clip-path="url(#clip0_52671_117339)">
<path d="M787.004 496.129C733.646 710.187 516.88 840.399 302.823 787.04C88.878 733.682 -41.3715 516.903 12.0117 302.896C65.345 88.8392 282.099 -41.4103 496.081 11.9479C710.113 65.3061 840.363 282.11 787.004 496.129Z" fill="#6556F2"/>
<path opacity="0.6" d="M399.091 317.911L206.741 405.295L399.091 519.102L591.673 405.295L399.091 317.911Z" fill="white"/>
<path opacity="0.45" d="M206.741 405.295L399.091 519.102V85.8925L206.741 405.295Z" fill="white"/>
<path opacity="0.8" d="M399.091 85.8925V519.102L591.673 405.295L399.091 85.8925Z" fill="white"/>
<path opacity="0.45" d="M206.741 441.917L399.091 713.108V555.493L206.741 441.917Z" fill="white"/>
<path opacity="0.8" d="M399.091 555.493V713.108L591.673 441.917L399.091 555.493Z" fill="white"/>
</g>
<defs>
<clipPath id="clip0_52671_117339">
<rect width="799" height="799" fill="white"/>
</clipPath>
</defs>
</svg>
