<svg width="150" height="150" viewBox="0 0 150 150" fill="none" xmlns="http://www.w3.org/2000/svg">
<path d="M75 0C116.42 0 150 33.5805 150 75C150 116.42 116.418 150 75 150C33.582 150 0 116.429 0 75C0 33.5715 33.576 0 75 0Z" fill="#24A17B"/>
<path d="M84.1477 64.2069V53.0299H109.369V36H40.6899V53.0299H65.9146V64.1979C45.4142 65.1521 30 69.2664 30 74.1952C30 79.124 45.4216 83.2384 65.9146 84.1986V120H84.1536V84.1956C104.617 83.2384 120 79.127 120 74.2027C120 69.2784 104.617 65.1671 84.1536 64.2099M84.1536 81.1631V81.1541C83.6391 81.1872 80.9952 81.348 75.1082 81.348C70.4017 81.348 67.0905 81.2127 65.9235 81.1511V81.1662C47.812 80.3532 34.2928 77.157 34.2928 73.3327C34.2928 69.5083 47.8135 66.3166 65.9235 65.5022V77.982C67.1098 78.0646 70.5025 78.2675 75.1854 78.2675C80.8098 78.2675 83.6376 78.0301 84.1566 77.982V65.5022C102.233 66.3181 115.721 69.5173 115.721 73.3282C115.721 77.139 102.227 80.3397 84.1566 81.1556" fill="white"/>
</svg>
