<svg width="92" height="92" viewBox="0 0 92 92" fill="none" xmlns="http://www.w3.org/2000/svg">
<circle cx="46" cy="46" r="46" fill="#2575F4"/>
<path d="M37.79 76.9234C37.79 77.9744 37.0367 78.57 36.1071 78.2547C23.7496 73.9455 14.79 61.2809 14.79 46.339C14.79 31.3972 23.7496 18.7326 36.1071 14.4234C37.0367 14.1081 37.79 14.7037 37.79 15.7547V18.3472C37.79 19.0479 37.2932 19.8712 36.6841 20.0989C26.9071 24.0226 19.9029 34.2875 19.9029 46.3215C19.9029 58.3556 26.9071 68.6204 36.6841 72.5442C37.2932 72.7894 37.79 73.5952 37.79 74.2959V76.9234Z" fill="white"/>
<path d="M48.6897 67.9284C48.6897 68.7043 48.083 69.3391 47.3415 69.3391H44.6619C43.9204 69.3391 43.3137 68.7043 43.3137 67.9284V63.4848C37.449 62.6561 34.5841 59.2176 33.8089 54.5448C33.6741 53.7513 34.2807 53.0283 35.056 53.0283H38.1231C38.7635 53.0283 39.3028 53.5044 39.4376 54.1745C40.0106 56.9605 41.5442 59.0941 46.2461 59.0941C49.7177 59.0941 52.1781 57.0663 52.1781 54.0334C52.1781 51.0005 50.7288 49.8543 45.6394 48.9727C38.1231 47.9147 34.5672 45.5342 34.5672 39.3626C34.5672 34.6016 38.0052 30.8986 43.3306 30.1051V25.7497C43.3306 24.9738 43.9373 24.3391 44.6788 24.3391H47.3583C48.0998 24.3391 48.7065 24.9738 48.7065 25.7497V30.2285C53.0376 31.0397 55.7846 33.6141 56.6778 37.8814C56.8463 38.6925 56.2396 39.4507 55.4475 39.4507H52.6163C52.0096 39.4507 51.504 39.0275 51.3187 38.4104C50.5603 35.6948 48.7065 34.5311 45.4877 34.5311C41.9318 34.5311 40.0949 36.3296 40.0949 38.8512C40.0949 41.5138 41.1397 42.8539 46.6 43.6827C53.9814 44.7407 57.79 46.9449 57.79 53.522C57.79 58.5122 54.251 62.5503 48.7065 63.4848V67.9284H48.6897Z" fill="white"/>
<path d="M55.5702 78.2559C54.6007 78.5665 53.8151 77.9799 53.8151 76.9449V74.3918C53.8151 73.6327 54.2648 72.9254 54.9668 72.6667C65.1615 68.7973 72.4612 58.6849 72.4561 46.8336C72.4511 34.9823 65.1415 24.8768 54.9434 21.0177C54.3082 20.7762 53.79 19.9827 53.79 19.2927V16.7395C53.79 15.7045 54.574 15.1007 55.5435 15.4285C68.4327 19.6653 77.7834 32.1342 77.79 46.8491C77.78 61.5296 68.4578 73.9898 55.5736 78.2559H55.5702Z" fill="white"/>
</svg>
