<svg width="1332" height="1271" viewBox="0 0 1332 1271" fill="none" xmlns="http://www.w3.org/2000/svg">
<path d="M19.0215 481.838C103.804 141.332 448.374 -65.8598 788.537 19.0186C1106.35 98.3016 1307.96 404.432 1264.03 721.908C1251.35 716.809 1237.5 714 1223 714H938C847.978 714 775 786.978 775 877V1161C775 1194.75 790.202 1224.95 814.133 1245.13C709.288 1276.09 595.063 1280.35 481.318 1251.98C141.215 1167.1 -65.8406 822.265 19.0215 481.838Z" fill="#6556F2"/>
<path opacity="0.6" d="M635.09 506.596L332 644.288L635.09 823.616L938.545 644.288L635.09 506.596Z" fill="white"/>
<path opacity="0.45" d="M332 644.288L635.09 823.617V141L332 644.288Z" fill="white"/>
<path opacity="0.8" d="M635.09 141V823.617L938.545 644.288L635.09 141Z" fill="white"/>
<path opacity="0.45" d="M332 701.995L635.09 1129.32V880.958L332 701.995Z" fill="white"/>
<path opacity="0.8" d="M635.09 1129.32V880.958L809 777C785.386 808.702 773.394 848.002 775 887.5V931L635.09 1129.32Z" fill="white" fill-opacity="0.8"/>
<rect x="812" y="751" width="520" height="520" rx="134" fill="#0052FF"/>
<path d="M1072.08 1168.76C1159.14 1168.76 1229.76 1098.32 1229.76 1011.38C1229.76 924.488 1159.19 854 1072.08 854C989.519 854 921.712 917.444 915 998.128H1123.36V1024.58H915C921.712 1105.31 989.519 1168.76 1072.08 1168.76Z" fill="white"/>
</svg>
