<svg width="112" height="112" viewBox="0 0 112 112" fill="none" xmlns="http://www.w3.org/2000/svg">
<path d="M39.104 32.1156C40.1297 29.6542 43.6173 29.6542 44.643 32.1156L54.3803 55.4857C54.8709 56.6628 55.793 57.6084 56.9575 58.1283L78.6899 67.8304C81.0593 68.8882 81.0593 72.2512 78.6899 73.3089L56.8989 83.0374C55.7635 83.5443 54.8573 84.4563 54.3579 85.5951L44.6206 107.795C43.5708 110.189 40.1762 110.189 39.1264 107.795L29.4155 85.6556C28.9028 84.4867 27.9628 83.5579 26.7876 83.0599L3.82955 73.3324C1.39015 72.2987 1.39015 68.8406 3.82955 67.807L26.728 58.1048C27.9327 57.5944 28.8898 56.6319 29.393 55.4242L39.104 32.1156ZM42.7963 32.8851C42.4545 32.0646 41.2925 32.0646 40.9506 32.8851L31.2387 56.1927C30.5342 57.8836 29.1948 59.2309 27.5083 59.9457L4.60983 69.6488C3.79669 69.9933 3.79669 71.146 4.60983 71.4906L27.5678 81.2181C29.2131 81.9153 30.5298 83.2155 31.2475 84.8519L40.9575 106.992C41.3074 107.789 42.4396 107.789 42.7895 106.992L52.5258 84.7914C53.2251 83.1972 54.4939 81.9209 56.0835 81.2113L77.8755 71.4828C78.6647 71.13 78.6647 70.0093 77.8755 69.6566L56.1421 59.9544C54.5115 59.2265 53.2204 57.9025 52.5337 56.2542L42.7963 32.8851Z" fill="white" stroke="white" stroke-width="4"/>
<path d="M84.9898 3.54565C85.841 1.48478 88.7607 1.48479 89.6119 3.54565L94.8922 16.3328C95.0868 16.8041 95.4536 17.1838 95.9185 17.3933L107.749 22.7214C109.713 23.6063 109.713 26.3961 107.749 27.281L95.8902 32.6228C95.4368 32.8271 95.0758 33.1931 94.8775 33.6492L89.5933 45.8035C88.722 47.808 85.8797 47.808 85.0084 45.8035L79.7379 33.6794C79.5343 33.2112 79.1595 32.8382 78.69 32.6375L66.2066 27.2996C64.1837 26.4347 64.1837 23.5678 66.2066 22.7029L78.6607 17.3777C79.1418 17.1719 79.5235 16.7852 79.7232 16.3015L84.9898 3.54565ZM87.7633 4.30933C87.593 3.89711 87.0087 3.89711 86.8385 4.30933L81.5718 17.0652C81.1724 18.0326 80.4092 18.8051 79.4468 19.2166L66.9927 24.5417C66.5882 24.7147 66.5882 25.2877 66.9927 25.4607L79.4761 30.7986C80.415 31.2 81.1647 31.9452 81.5718 32.8816L86.8424 45.0066C87.0166 45.4074 87.5851 45.4074 87.7593 45.0066L93.0426 32.8513C93.439 31.9392 94.1612 31.2071 95.0679 30.7986L106.927 25.4568C107.319 25.2796 107.319 24.7228 106.927 24.5457L95.0972 19.2166C94.1673 18.7976 93.4329 18.0391 93.0435 17.0964L87.7633 4.30933Z" fill="white" stroke="white" stroke-width="4"/>
</svg>
