<svg width="111" height="111" viewBox="0 0 111 111" fill="none" xmlns="http://www.w3.org/2000/svg">
<path d="M27.2446 58.4557L4.34595 68.1585C2.71968 68.8476 2.71968 71.1524 4.34595 71.8415L27.3041 81.5695C28.7144 82.1671 29.8427 83.2814 30.4579 84.6841L40.1684 106.824C40.8682 108.42 43.1318 108.42 43.8316 106.824L53.5686 84.6236C54.1679 83.2571 55.2549 82.163 56.6174 81.5547L78.4091 71.8263C79.9887 71.1211 79.9887 68.8789 78.4091 68.1737L56.676 58.4714C55.2784 57.8475 54.1721 56.7131 53.5835 55.3003L43.8462 31.9308C43.1624 30.2897 40.8376 30.2897 40.1538 31.9308L30.4421 55.2389C29.8382 56.6882 28.6903 57.8431 27.2446 58.4557Z" fill="white"/>
<path d="M79.18 17.727L66.7258 23.0519C65.5121 23.5709 65.5121 25.2914 66.7258 25.8104L79.2095 31.1479C79.9137 31.449 80.4761 32.0081 80.7815 32.7105L86.0516 44.8351C86.5744 46.0378 88.2802 46.0378 88.8029 44.8351L94.0863 32.68C94.3837 31.9958 94.9253 31.447 95.6055 31.1406L107.464 25.7988C108.643 25.2679 108.643 23.5944 107.464 23.0635L95.6346 17.7348C94.937 17.4205 94.3858 16.8516 94.0938 16.1445L88.8137 3.35757C88.3031 2.12092 86.5515 2.12092 86.0408 3.35757L80.7735 16.1135C80.4739 16.8391 79.9018 17.4184 79.18 17.727Z" fill="white"/>
</svg>
