<?xml version="1.0" encoding="UTF-8"?>
<svg width="400px" height="400px" viewBox="0 0 400 400" version="1.1" xmlns="http://www.w3.org/2000/svg" xmlns:xlink="http://www.w3.org/1999/xlink">
    <title>Gas Icon</title>
    <g id="Gas-Icon" stroke="none" stroke-width="1" fill="none" fill-rule="evenodd">
        <path d="M260.725594,15 C274.532712,15 285.725594,26.1928813 285.725594,40 L285.726049,108.16693 C304.766741,110.381536 319.5175,125.904721 319.5175,144.725105 L319.5175,266.62603 C319.5175,280.477471 331.250416,291.706283 345.723701,291.706283 C360.196986,291.706283 371.929902,280.477471 371.929902,266.62603 L371.929,148.131 L342.523792,126.367661 C335.882875,121.452558 332,113.90391 332,105.908489 L332,73.573 L300.049962,50.5557012 C296.063302,47.6836649 295.264244,42.262448 298.265217,38.4470742 C301.26619,34.6317004 306.930786,33.8669743 310.917446,36.7390106 L380.636602,86.9654958 C386.532365,91.2128719 390,97.8647953 390,104.927194 L390,266.62603 C390,290.028528 370.176826,309 345.723701,309 C321.270576,309 301.447402,290.028528 301.447402,266.62603 L301.447402,144.725105 C301.447402,135.480966 294.738367,127.73648 285.726042,125.7081 L285.725594,308.360215 C285.725594,313.883063 281.248441,318.360215 275.725594,318.360215 L53.0870712,318.360215 C47.5642237,318.360215 43.0870712,313.883063 43.0870712,308.360215 L43.0870712,40 C43.0870712,26.1928813 54.2799525,15 68.0870712,15 L260.725594,15 Z M230,62 L99,62 C94.581722,62 91,65.581722 91,70 L91,165 C91,169.418278 94.581722,173 99,173 L230,173 C234.418278,173 238,169.418278 238,165 L238,70 C238,65.581722 234.418278,62 230,62 Z M350.21,86.691 L350.210705,105.908489 C350.210705,108.57363 351.504996,111.089846 353.718635,112.728213 L371.929,126.206 L371.929902,104.927194 C371.929902,103.297409 371.129678,101.76235 369.769118,100.782186 L350.21,86.691 Z M20,331.290323 L307.810026,331.290323 C313.332874,331.290323 317.810026,335.767475 317.810026,341.290323 L317.810026,375 C317.810026,380.522847 313.332874,385 307.810026,385 L20,385 C14.4771525,385 10,380.522847 10,375 L10,341.290323 C10,335.767475 14.4771525,331.290323 20,331.290323 Z" id="Combined-Shape" fill="#FFFFFF"></path>
    </g>
</svg>