<svg width="973" height="192" viewBox="0 0 973 192" fill="none" xmlns="http://www.w3.org/2000/svg">
<g clip-path="url(#clip0_52796_2)">
<path fill-rule="evenodd" clip-rule="evenodd" d="M215.746 187.698L116.548 108.78C112.955 105.922 107.728 106.519 104.871 110.112C103.702 111.583 103.065 113.407 103.065 115.287V174.3C103.065 183.753 95.4051 191.415 85.956 191.415C82.0878 191.415 78.3338 190.104 75.3063 187.695L14.7642 139.526C5.43569 132.104 -6.51124e-06 120.832 -6.51124e-06 108.908V17.1776C-6.51124e-06 7.72498 7.65996 0.0620969 17.109 0.0620969C20.9508 0.0620969 24.6807 1.35559 27.6982 3.73426L126.986 82.0017C130.591 84.8433 135.816 84.2235 138.656 80.6173C139.811 79.1511 140.439 77.3387 140.439 75.472V17.1155C140.439 7.66288 148.099 0 157.548 0C161.382 0 165.104 1.28802 168.119 3.65749L228.559 51.1666C237.995 58.5834 243.504 69.9233 243.504 81.9278V174.302C243.504 183.755 235.844 191.417 226.395 191.417C222.527 191.417 218.774 190.106 215.746 187.698Z" fill="white"/>
<path d="M439.066 11.2207C409.894 11.2207 393.865 25.0092 385.209 40.0803H384.568V24.8834C384.568 21.3714 381.722 18.5243 378.211 18.5243H339.633C336.122 18.5243 333.276 21.3714 333.276 24.8834V174.172C333.276 177.684 336.122 180.531 339.633 180.531H378.211C381.722 180.531 384.568 177.684 384.568 174.172V85.6144C384.568 62.8474 395.788 52.9068 415.343 52.9068C432.334 52.9068 440.99 61.2441 440.99 85.9351V174.172C440.99 177.684 443.836 180.531 447.347 180.531H485.925C489.436 180.531 492.282 177.684 492.282 174.172V69.5813C492.282 32.0638 470.803 11.2207 439.066 11.2207Z" fill="white"/>
<path d="M622.261 112.587C622.261 134.499 611.462 144.066 592.642 144.066C576.289 144.066 567.959 136.042 567.959 112.278V27.5944C567.959 24.0824 565.112 21.2354 561.601 21.2354H528.8C525.289 21.2354 522.443 24.0824 522.443 27.5944V124.188C522.443 160.296 543.115 180.356 573.66 180.356C601.737 180.356 613.931 170.916 622.261 156.41V172.889C622.261 176.401 625.108 179.248 628.619 179.248H665.27C668.781 179.248 671.627 176.401 671.627 172.889V27.5944C671.627 24.0824 668.781 21.2354 665.27 21.2354H628.619C625.108 21.2354 622.261 24.0824 622.261 27.5944V112.587Z" fill="white"/>
<path fill-rule="evenodd" clip-rule="evenodd" d="M901.783 17.7393C940.844 17.7393 972.509 49.4127 972.509 88.4838V109.151C972.509 148.222 940.844 179.895 901.783 179.895H881.122C842.061 179.895 810.396 148.222 810.396 109.151V88.4838C810.396 49.4127 842.061 17.7393 881.122 17.7393H901.783ZM895.426 59.0731H889.068C871.513 59.0731 857.282 73.3084 857.282 90.8684V107.561C857.282 125.121 871.513 139.356 889.068 139.356H895.426C912.981 139.356 927.213 125.121 927.213 107.561V90.8684C927.213 73.3084 912.981 59.0731 895.426 59.0731Z" fill="white"/>
<path fill-rule="evenodd" clip-rule="evenodd" d="M710.963 179.835H746.577C750.088 179.835 752.935 176.988 752.935 173.476V79.6051C752.935 69.9471 760.762 62.1177 770.417 62.1177H786.661C790.172 62.1177 793.018 59.2706 793.018 55.7586V24.0378C793.018 20.5258 790.172 17.6787 786.661 17.6787H748.812C724.397 17.6787 704.605 37.4759 704.605 61.8969V173.476C704.605 176.988 707.452 179.835 710.963 179.835Z" fill="white"/>
</g>
<defs>
<clipPath id="clip0_52796_2">
<rect width="973" height="192" fill="white"/>
</clipPath>
</defs>
</svg>
