<svg width="1344" height="1057" viewBox="0 0 1344 1057" fill="none" xmlns="http://www.w3.org/2000/svg">
<path fill-rule="evenodd" clip-rule="evenodd" d="M1190.31 1035.56L643.014 600.16C623.195 584.393 594.353 587.684 578.592 607.51C572.141 615.626 568.628 625.689 568.628 636.058V961.644C568.628 1013.8 526.367 1056.07 474.235 1056.07C452.893 1056.07 432.182 1048.84 415.479 1035.55L81.4565 769.793C29.9897 728.844 -5.29081e-05 666.651 -5.29081e-05 600.866V94.772C-5.29081e-05 42.6201 42.2614 0.3426 94.3935 0.3426C115.589 0.3426 136.168 7.47903 152.816 20.6026L700.603 452.418C720.492 468.096 749.32 464.676 764.992 444.78C771.364 436.691 774.829 426.692 774.829 416.393V94.4294C774.829 42.2775 817.09 0 869.222 0C890.373 0 910.911 7.10627 927.542 20.179L1261 282.295C1313.06 323.215 1343.46 385.779 1343.46 452.01V961.655C1343.46 1013.81 1301.2 1056.08 1249.06 1056.08C1227.72 1056.08 1207.01 1048.85 1190.31 1035.56Z" fill="#171717"/>
</svg>
