<svg width="249" height="321" viewBox="0 0 249 321" fill="none" xmlns="http://www.w3.org/2000/svg">
<path d="M158.891 72H93.5825C91.2194 72 89.2214 72.9461 87.5672 75.0104L40.7339 133.067C33.8593 141.668 32.1406 149.624 32.1406 161.021V220.368C16.8876 263.158 7.22012 292.187 0.130672 318.42C-0.298992 320.097 0.345503 321 1.84933 321H8.93878C10.2278 321 11.5168 320.355 11.9464 319.28C65.4396 182.953 123.659 115.435 160.18 75.0104C161.684 73.2902 161.04 72 158.891 72Z" fill="black"/>
<path d="M161.465 5.65953C157.11 7.36125 152.926 10.2477 151.005 11.9064C131.792 28.4928 118.983 41.6327 106.814 54.5572C105.32 56.0651 105.961 57.5729 108.095 57.5729H180.038C186.656 57.5729 190.499 61.4503 190.499 68.128V149.983C190.499 152.137 192.207 152.783 193.488 150.845L236.824 93.7616C243.869 84.499 246.004 81.6987 247.925 68.7742C250.487 49.8182 248.993 20.7381 237.678 8.67525C227.645 -2.09517 182.387 -2.52599 161.465 5.65953Z" fill="black"/>
<path d="M172.009 88.9116C127.36 138.819 92.5384 191.297 60.2801 254.485C59.4683 256.07 60.4938 257.484 62.4164 256.841L129.069 236.278C136.589 233.965 140.819 230.924 144.451 224.926L174.145 175.875C174.786 174.59 175 173.091 175 172.02V90.1967C175 88.0548 173.505 87.198 172.009 88.9116Z" fill="black"/>
</svg>
