<svg width="799" height="799" viewBox="0 0 799 799" fill="none" xmlns="http://www.w3.org/2000/svg">
<g clip-path="url(#clip0_52671_117348)">
<path d="M787.004 496.13C733.646 710.187 516.88 840.399 302.823 787.041C88.878 733.682 -41.3715 516.904 12.0117 302.897C65.345 88.8395 282.099 -41.41 496.081 11.9483C710.113 65.3065 840.363 282.11 787.004 496.13Z" fill="#292929"/>
<path d="M237.057 488.006C240.008 485.055 243.975 483.395 248.126 483.395H632.325C639.336 483.395 642.841 491.879 637.86 496.767L561.942 572.666C558.991 575.618 555.024 577.278 550.873 577.278H166.674C159.663 577.278 156.158 568.793 161.139 563.905L237.057 488.006Z" fill="url(#paint0_linear_52671_117348)"/>
<path d="M237.057 204.366C240.008 201.412 243.975 199.75 248.126 199.75H632.325C639.336 199.75 642.841 208.243 637.86 213.135L561.942 289.017C558.991 291.971 555.024 293.632 550.873 293.632H166.674C159.663 293.632 156.158 285.14 161.139 280.247L237.057 204.366Z" fill="url(#paint1_linear_52671_117348)"/>
<path d="M561.942 345.189C558.991 342.235 555.024 340.574 550.873 340.574H166.674C159.663 340.574 156.158 349.067 161.139 353.959L237.057 429.841C240.008 432.795 243.975 434.456 248.126 434.456H632.325C639.336 434.456 642.841 425.963 637.86 421.071L561.942 345.189Z" fill="url(#paint2_linear_52671_117348)"/>
</g>
<defs>
<linearGradient id="paint0_linear_52671_117348" x1="158.801" y1="530.336" x2="640.198" y2="530.336" gradientUnits="userSpaceOnUse">
<stop stop-color="#845AEC"/>
<stop offset="1" stop-color="#12C494"/>
</linearGradient>
<linearGradient id="paint1_linear_52671_117348" x1="158.801" y1="246.691" x2="640.198" y2="246.691" gradientUnits="userSpaceOnUse">
<stop stop-color="#845AEC"/>
<stop offset="1" stop-color="#12C494"/>
</linearGradient>
<linearGradient id="paint2_linear_52671_117348" x1="158.801" y1="387.515" x2="640.198" y2="387.515" gradientUnits="userSpaceOnUse">
<stop stop-color="#845AEC"/>
<stop offset="1" stop-color="#12C494"/>
</linearGradient>
<clipPath id="clip0_52671_117348">
<rect width="799" height="799" fill="white"/>
</clipPath>
</defs>
</svg>
