<?xml version="1.0" encoding="UTF-8"?>
<svg width="542px" height="542px" viewBox="0 0 542 542" version="1.1" xmlns="http://www.w3.org/2000/svg" xmlns:xlink="http://www.w3.org/1999/xlink">
    <title>wrapped-bitcoin-wbtc-icon</title>
    <g id="Page-1" stroke="none" stroke-width="1" fill="none" fill-rule="evenodd">
        <g id="wrapped-bitcoin-wbtc-icon">
            <circle id="Oval" stroke="#979797" fill="#FFFFFF" cx="271" cy="271" r="270.5"></circle>
            <path d="M432.09,123.09 L418.09,137.09 C487.380893,212.87584 487.380893,329.01416 418.09,404.8 L432.09,418.8 C509.147534,335.178596 509.147534,206.421404 432.09,122.8 L432.09,123.09 Z" id="Shape" fill="#4D4D4D" fill-rule="nonzero"></path>
            <path d="M137.43,124.31 C213.212164,55.0096395 329.357836,55.0096395 405.14,124.31 L419.14,110.31 C335.511819,33.2107971 206.708181,33.2107971 123.08,110.31 L137.43,124.31 Z" id="Shape-2" fill="#4D4D4D" fill-rule="nonzero"></path>
            <path d="M124.31,405 C55.090222,329.240255 55.090222,213.189745 124.31,137.43 L110.31,123.43 C33.2107971,207.058181 33.2107971,335.861819 110.31,419.49 L124.31,405 Z" id="Shape-3" fill="#4D4D4D" fill-rule="nonzero"></path>
            <path d="M405,417.89 C329.217836,487.19036 213.072164,487.19036 137.29,417.89 L123.29,431.89 C206.918181,508.989203 335.721819,508.989203 419.35,431.89 L405,417.89 Z" id="Shape-4" fill="#4D4D4D" fill-rule="nonzero"></path>
            <path d="M359.6,224.39 C356.8,195.16 331.6,185.39 299.68,182.39 L299.68,142.1 L275,142.1 L275,181.61 L255.31,181.61 L255.31,142.1 L230.84,142.1 L230.84,182.64 L180.84,182.64 L180.84,209 C180.84,209 199.05,208.67 198.77,209 C205.590451,208.255167 211.777364,213.041186 212.77,219.83 L212.77,330.83 C212.449235,335.667797 208.267857,339.329861 203.43,339.01 C203.76,339.29 185.5,339.01 185.5,339.01 L180.83,368.48 L230.38,368.48 L230.38,409.67 L255,409.67 L255,369.08 L274.71,369.08 L274.71,409.48 L299.42,409.48 L299.42,368.76 C341.08,366.23 370.13,355.96 373.77,316.96 C376.71,285.58 361.95,271.56 338.37,265.96 C352.74,258.86 361.61,245.78 359.6,224.39 Z M325,312.1 C325,342.74 272.51,339.24 255.79,339.24 L255.79,284.88 C272.55,284.92 325,280.11 325,312.1 Z M313.6,235.51 C313.6,263.51 269.79,260.12 255.87,260.12 L255.87,210.71 C269.79,210.71 313.6,206.32 313.6,235.51 Z" id="Shape-5" fill="#F09242" fill-rule="nonzero"></path>
            <path d="M271.1,526.29 C130.19,526.26 16,412 16,271.1 C16,130.2 130.28,16 271.19,16 C412.1,16 526.26,130.22 526.290006,271.1 C526.32,411.98 412.1,526.26 271.19,526.29 L271.1,526.29 Z M271.1,35.9 C141.25,36 36.1,141.34 36.1799544,271.19 C36.26,401.04 141.62,506.19 271.47,506.110046 C401.32,506.03 506.34,400.83 506.390018,271.11 C506.44,141.39 401.22,36 271.38,35.9 L271.1,35.9 Z" id="Shape-6" fill="#111111" fill-rule="nonzero"></path>
        </g>
    </g>
</svg>