<svg width="1772" height="1227" viewBox="0 0 1772 1227" fill="none" xmlns="http://www.w3.org/2000/svg">
<path opacity="0.7" d="M929.359 178.603L1215.44 382.532C1236.5 397.545 1249 421.812 1249 447.675V884.616C1249 925.135 1203.33 948.827 1170.2 925.491L960.622 777.849C949.36 769.915 933.832 777.97 933.832 791.746V876.756C933.832 918.718 885.26 942.015 852.535 915.749L543.925 668.052C525.007 652.868 514 629.921 514 605.663V196.961C514 157.742 557.093 133.791 590.399 154.498L824.36 299.953C835.684 306.993 850.336 298.85 850.336 285.516V251.492V219.317C850.336 178.67 896.261 155.009 929.359 178.603Z" stroke="white" stroke-opacity="0.2" stroke-width="8"/>
<path opacity="0.5" d="M833.228 -70.9476L1390.42 313.277C1412.07 328.209 1425 352.832 1425 379.136V1147.89C1425 1186.05 1383.99 1210.14 1350.66 1191.57L1066.57 1033.23C1055.23 1026.91 1041.29 1035.11 1041.29 1048.08V1123.93V1131.16C1041.29 1172.7 993.577 1196.12 960.712 1170.72L369.075 713.412C349.476 698.262 338 674.888 338 650.116V-39.37C338 -77.6424 379.243 -101.725 412.574 -82.9144L729.488 95.935C740.821 102.33 754.844 94.1425 754.844 81.1299V37.5323V-29.7856C754.844 -70.0766 800.059 -93.8205 833.228 -70.9476Z" stroke="white" stroke-opacity="0.2" stroke-width="8"/>
<path opacity="0.3" d="M792.91 -286.958L1563.41 244.286C1585.07 259.219 1598 283.843 1598 310.149V1363.9C1598 1402.05 1556.99 1426.15 1523.66 1407.57L1117.43 1181.2C1106.1 1174.88 1092.15 1183.07 1092.15 1196.05V1305.24V1347.17C1092.15 1388.7 1044.44 1412.13 1011.58 1386.73L196.08 756.482C176.478 741.333 165 717.957 165 693.182V-255.376C165 -293.647 206.241 -317.729 239.572 -298.922L689.174 -45.2278C700.506 -38.8332 714.528 -47.0212 714.528 -60.0334V-126.764V-245.793C714.528 -286.083 759.74 -309.827 792.91 -286.958Z" stroke="white" stroke-opacity="0.2" stroke-width="8"/>
<path opacity="0.1" d="M1554.09 41L1735.64 175.601C1756 190.69 1768 214.529 1768 239.866V926.061V1139.23M4.00005 92.7282V732.625C4.00005 756.828 14.9573 779.73 33.8029 794.916L515.391 1183" stroke="white" stroke-opacity="0.2" stroke-width="8" stroke-linecap="round"/>
<path fill-rule="evenodd" clip-rule="evenodd" d="M1050.54 696.7L877.348 558.918C871.076 553.929 861.949 554.97 856.962 561.244C854.92 563.812 853.809 566.997 853.809 570.278V673.308C853.809 689.811 840.435 703.19 823.938 703.19C817.185 703.19 810.631 700.901 805.345 696.695L699.645 612.598C683.359 599.64 673.869 579.959 673.869 559.142V398.99C673.869 382.487 687.242 369.108 703.739 369.108C710.446 369.108 716.958 371.367 722.227 375.52L895.572 512.166C901.865 517.127 910.988 516.045 915.947 509.749C917.963 507.189 919.06 504.025 919.06 500.766V398.882C919.06 382.379 932.433 369 948.93 369C955.623 369 962.123 371.249 967.385 375.386L1072.91 458.331C1089.38 471.28 1099 491.078 1099 512.037V673.312C1099 689.815 1085.63 703.194 1069.13 703.194C1062.38 703.194 1055.82 700.904 1050.54 696.7Z" stroke="white" stroke-opacity="0.17" stroke-width="8"/>
</svg>
