<svg width="393" height="101" viewBox="0 0 393 101" fill="none" xmlns="http://www.w3.org/2000/svg">
<path d="M64.9678 0C47.0524 0 37.2088 8.20322 31.8933 17.1695H31.4995V8.12836C31.4995 6.03895 29.7516 4.34515 27.5954 4.34515H3.90417C1.74796 4.34515 0 6.03895 0 8.12836V96.9447C0 99.0341 1.74796 100.728 3.90417 100.728H27.5954C29.7516 100.728 31.4995 99.0341 31.4995 96.9447V44.2592C31.4995 30.7144 38.3901 24.8004 50.3993 24.8004C60.8335 24.8004 66.149 29.7605 66.149 44.45V96.9447C66.149 99.0341 67.897 100.728 70.0532 100.728H93.7444C95.9006 100.728 97.6486 99.0341 97.6486 96.9447V34.7206C97.6486 12.4002 84.4582 0 64.9678 0Z" fill="#4D4D4D"/>
<path d="M177.471 60.3068C177.471 73.3429 170.839 79.0347 159.281 79.0347C149.239 79.0347 144.123 74.2609 144.123 60.1232V9.74219C144.123 7.65278 142.375 5.95898 140.218 5.95898H120.075C117.918 5.95898 116.17 7.65278 116.17 9.74219V67.2087C116.17 88.6908 128.865 100.625 147.624 100.625C164.866 100.625 172.355 95.0086 177.471 86.379V96.1828C177.471 98.2722 179.219 99.966 181.375 99.966H203.883C206.039 99.966 207.787 98.2722 207.787 96.1828V9.74219C207.787 7.65278 206.039 5.95898 203.883 5.95898H181.375C179.219 5.95898 177.471 7.65278 177.471 9.74219V60.3068Z" fill="#4D4D4D"/>
<path fill-rule="evenodd" clip-rule="evenodd" d="M349.131 3.87793C373.119 3.87793 392.565 22.7215 392.565 45.9661V58.2615C392.565 81.5062 373.119 100.35 349.131 100.35H336.442C312.454 100.35 293.008 81.5062 293.008 58.2615V45.9661C293.008 22.7215 312.454 3.87793 336.442 3.87793H349.131ZM345.227 28.4688H341.322C330.541 28.4688 321.802 36.9378 321.802 47.3848V57.3157C321.802 67.7628 330.541 76.2318 341.322 76.2318H345.227C356.008 76.2318 364.747 67.7628 364.747 57.3157V47.3848C364.747 36.9378 356.008 28.4688 345.227 28.4688Z" fill="#4D4D4D"/>
<path fill-rule="evenodd" clip-rule="evenodd" d="M231.944 100.315H253.816C255.972 100.315 257.72 98.6208 257.72 96.5314V40.6848C257.72 34.9389 262.527 30.2809 268.456 30.2809H278.432C280.588 30.2809 282.336 28.5871 282.336 26.4977V7.62598C282.336 5.53657 280.588 3.84277 278.432 3.84277H255.188C240.195 3.84277 228.04 15.6208 228.04 30.1496V96.5314C228.04 98.6208 229.788 100.315 231.944 100.315Z" fill="#4D4D4D"/>
</svg>
