<svg width="459" height="131" viewBox="0 0 459 131" fill="none" xmlns="http://www.w3.org/2000/svg">
<circle cx="61" cy="64.6494" r="58" fill="#FF9311" stroke="#202020" stroke-width="6"/>
<circle cx="172" cy="66.6494" r="58" fill="#0059FF" stroke="#202020" stroke-width="6"/>
<circle cx="281" cy="66.6494" r="58" fill="#8047EA" stroke="#202020" stroke-width="6"/>
<path opacity="0.9" d="M257.242 78.9478C257.671 78.5225 258.261 78.2744 258.886 78.2744H315.606C316.643 78.2744 317.161 79.5148 316.428 80.2414L305.224 91.3519C304.795 91.7772 304.205 92.0253 303.58 92.0253H246.86C245.823 92.0253 245.305 90.7849 246.037 90.0583L257.242 78.9478Z" fill="white"/>
<path opacity="0.9" d="M257.242 36.6372C257.689 36.2119 258.279 35.9639 258.886 35.9639H315.606C316.643 35.9639 317.161 37.2043 316.428 37.9308L305.224 49.0414C304.795 49.4666 304.205 49.7147 303.58 49.7147H246.86C245.823 49.7147 245.305 48.4743 246.037 47.7478L257.242 36.6372Z" fill="white"/>
<path opacity="0.9" d="M305.224 57.7925C304.795 57.3672 304.205 57.1191 303.58 57.1191H246.86C245.823 57.1191 245.305 58.3596 246.037 59.0861L257.242 70.1966C257.671 70.6219 258.261 70.87 258.886 70.87H315.606C316.643 70.87 317.161 69.6296 316.428 68.9031L305.224 57.7925Z" fill="white"/>
<path fill-rule="evenodd" clip-rule="evenodd" d="M171.85 86.7143L198.962 70.2998L171.85 108.078V86.7143Z" fill="#D6D6D6"/>
<path fill-rule="evenodd" clip-rule="evenodd" d="M174.612 52.6279L194.641 63.5546L192.658 66.9191L172.629 55.9925L174.612 52.6279Z" fill="#D895D3"/>
<path fill-rule="evenodd" clip-rule="evenodd" d="M171.85 20.9746L198.895 65.8245L171.85 82.2716V20.9746Z" fill="white"/>
<path fill-rule="evenodd" clip-rule="evenodd" d="M171.934 86.7143L144.805 70.2998L171.934 108.078V86.7143Z" fill="white"/>
<path fill-rule="evenodd" clip-rule="evenodd" d="M168.307 52.9863L148.278 63.913L150.26 67.2775L170.29 56.3509L168.307 52.9863Z" fill="#A6E275"/>
<path fill-rule="evenodd" clip-rule="evenodd" d="M171.85 20.9746L144.805 65.8245L171.85 82.2553V20.9746Z" fill="#D6D6D6"/>
<path d="M94.615 55.3916C96.0257 46.1668 88.8459 41.2077 79.0284 37.8995L82.2131 25.4033L74.4375 23.5077L71.337 35.6746C69.2659 35.1768 67.19 34.6987 65.1095 34.2404L68.2321 21.9933L60.4587 20.0977L57.2741 32.5895C55.5821 32.2125 53.9211 31.8399 52.3089 31.4478L52.3177 31.4088L41.5945 28.7895L39.526 36.9138C39.526 36.9138 45.2951 38.2072 45.1733 38.2873C48.3225 39.0564 48.8917 41.0951 48.7965 42.7113L45.1689 56.9471C45.3859 57.0013 45.6672 57.0814 45.9772 57.2006L45.1556 57.0013L40.0708 76.9436C39.6855 77.8795 38.7088 79.2834 36.5052 78.7505C36.585 78.861 30.8557 77.3704 30.8557 77.3704L26.9956 86.0796L37.1143 88.5494C38.9967 89.0087 40.8415 89.4918 42.6575 89.9468L39.4396 102.586L47.2064 104.482L50.391 91.9746C52.5126 92.54 54.5722 93.0578 56.5875 93.5496L53.4118 105.996L61.1851 107.892L64.4052 95.2763C77.6642 97.7309 87.6345 96.7408 91.8312 85.0116C95.213 75.5658 91.6629 70.1171 84.6868 66.5619C89.7672 65.4137 93.5941 62.1445 94.615 55.3916ZM76.847 79.76C74.4441 89.2058 58.1865 84.1016 52.9157 82.8191L57.1855 66.0744C62.4563 67.3635 79.3584 69.9113 76.847 79.76ZM79.2521 55.2573C77.0596 63.8473 63.5282 59.4819 59.1388 58.4117L63.01 43.2247C67.3994 44.2949 81.5354 46.2946 79.2521 55.2573Z" fill="white"/>
<path d="M391.676 3C427.255 3.00007 455.926 30.8747 455.926 65.0518C455.926 99.229 427.255 127.104 391.676 127.104C356.097 127.104 327.426 99.229 327.426 65.0518C327.426 30.8747 356.097 3 391.676 3Z" fill="#007AFF" stroke="#202020" stroke-width="6"/>
<path d="M379.033 110.159C379.033 111.692 377.795 112.56 376.266 112.1C355.945 105.818 341.212 87.3523 341.212 65.5668C341.212 43.7813 355.945 25.316 376.266 19.0332C377.795 18.5735 379.033 19.4418 379.033 20.9742V24.7541C379.033 25.7757 378.216 26.9761 377.215 27.3081C361.137 33.029 349.62 47.9954 349.62 65.5413C349.62 83.0872 361.137 98.0535 377.215 103.774C378.216 104.132 379.033 105.307 379.033 106.328V110.159Z" fill="white"/>
<path d="M396.007 96.2052C396.007 97.3286 395.056 98.2477 393.894 98.2477H389.695C388.533 98.2477 387.583 97.3286 387.583 96.2052V89.7714C378.392 88.5715 373.903 83.5929 372.688 76.8273C372.477 75.6784 373.428 74.6316 374.642 74.6316H379.449C380.452 74.6316 381.297 75.3209 381.509 76.2911C382.407 80.325 384.81 83.4142 392.178 83.4142C397.618 83.4142 401.474 80.4782 401.474 76.0869C401.474 71.6955 399.202 70.036 391.227 68.7595C379.449 67.2276 373.877 63.7809 373.877 54.8451C373.877 47.9518 379.264 42.5903 387.609 41.4414V35.1352C387.609 34.0119 388.56 33.0928 389.722 33.0928H393.921C395.083 33.0928 396.033 34.0119 396.033 35.1352V41.6201C402.82 42.7945 407.125 46.522 408.525 52.7005C408.789 53.8749 407.838 54.9728 406.597 54.9728H402.16C401.209 54.9728 400.417 54.36 400.127 53.4665C398.938 49.5347 396.033 47.8496 390.989 47.8496C385.417 47.8496 382.539 50.4538 382.539 54.1047C382.539 57.9599 384.176 59.9002 392.732 61.1002C404.299 62.6321 410.268 65.8234 410.268 75.3465C410.268 82.5717 404.722 88.4183 396.033 89.7714V96.2052H396.007Z" fill="white"/>
<path d="M407.124 112.306C405.596 112.765 404.358 111.897 404.358 110.364V106.582C404.358 105.458 405.067 104.41 406.173 104.027C422.239 98.2957 433.743 83.3176 433.735 65.7638C433.727 48.2101 422.207 33.2421 406.136 27.5263C405.135 27.1686 404.319 25.9932 404.319 24.9712V21.1896C404.319 19.6565 405.554 18.7622 407.082 19.2477C427.394 25.5231 442.13 43.9916 442.14 65.7868C442.124 87.531 427.434 105.987 407.13 112.306H407.124Z" fill="white"/>
</svg>
