<svg width="312" height="99" viewBox="0 0 312 99" fill="none" xmlns="http://www.w3.org/2000/svg">
<path d="M202.626 0C180.539 0 160.799 11.1621 160.799 31.7802C160.799 55.428 195.807 57.0612 195.807 68.9427C195.807 73.9455 189.927 78.423 179.881 78.423C165.629 78.423 154.976 72.1666 154.976 72.1666L150.417 92.976C150.417 92.976 162.689 98.261 178.981 98.261C203.131 98.261 222.136 86.5525 222.136 65.5792C222.136 40.5897 186.981 39.0051 186.981 27.9796C186.981 24.0606 191.808 19.7682 201.823 19.7682C213.124 19.7682 222.341 24.3186 222.341 24.3186L226.804 4.22259C226.804 4.22259 216.77 0 202.623 0H202.626ZM0.535612 1.51783L0 4.55044C0 4.55044 9.29224 6.20791 17.6627 9.51677C28.4404 13.3083 29.2064 15.5183 31.0219 22.3728L50.799 96.6946H77.3118L118.155 1.51783H91.7048L65.4598 66.2288L54.7507 11.3746C53.7698 5.09686 48.7936 1.51479 42.7057 1.51479H0.538726L0.535612 1.51783ZM128.793 1.51783L108.044 96.6946H133.268L153.942 1.51783H128.793ZM269.472 1.51783C263.39 1.51783 260.167 4.69312 257.804 10.2393L220.85 96.6946H247.3L252.416 82.2844H284.64L287.751 96.6946H311.091L290.731 1.51783H269.472ZM272.913 27.2328L280.754 62.9473H259.75L272.916 27.2328H272.913Z" fill="white"/>
</svg>
