<svg xmlns="http://www.w3.org/2000/svg" viewBox="0 0 2500 2500" width="32" height="32"><circle cx="1250" cy="1250" r="1250" fill="#213147"/><path d="M2040 1658c0 20-11 39-28 49l-175 101c-18 10-40 10-57 0l-184-106c-17-10-28-29-28-49v-202l-239-138c-17-10-39-10-56 0l-525 303v323c0 10-5 19-14 24l-184 106c-18 10-40 10-57 0l-175-101c-18-10-28-29-28-49V893c0-20 11-39 28-49l683-395c18-10 40-10 57 0l683 395c18 10 28 29 28 49v202l239 138c17 10 39 10 56 0l175-101c18-10 40-10 57 0l175 101c18 10 28 29 28 49v176z" fill="#12AAFF"/><path d="M1285 1014l-192-60c-6-2-13 1-15 7l-132 411c-2 6 1 13 7 15l192 60c6 2 13-1 15-7l132-411c2-6-1-13-7-15z" fill="#FFFFFF"/></svg>
