<svg xmlns="http://www.w3.org/2000/svg" viewBox="0 0 1503 1504" width="32" height="32"><rect x="287" y="258" width="928" height="844" fill="#FFFFFF"/><path d="M1502.5 752c0 414.9-336.1 751-751 751S.5 1166.9.5 752 336.6 1 751.5 1s751 336.1 751 751zM538.7 1050.8H392.9c-30.6 0-45.7 0-54.9-5.9-10-6.4-16.1-17.2-16.9-29.1-.5-10.9 7-24.2 22.1-50.8l360.2-634.9c15.3-26.9 23-40.4 32.8-45.4 10.6-5.4 23.2-5.4 33.7 0 9.8 5 17.5 18.5 32.8 45.4l74 129.3.4.7c16.5 28.9 24.9 43.6 28.6 59 4 16.8 4 34.4 0 51.1-3.7 15.5-12 30.3-28.8 59.8L656.8 925l-.5.9c-16.7 29.2-25.1 44-36.9 55.2-12.8 12.2-28.2 21.1-45 26.1-15.3 4.6-32.5 4.6-66.8 4.6zm368.9 0h208.9c30.8 0 46.3 0 55.5-6.1 10-6.4 16.2-17.4 16.9-29.3.5-10.5-6.8-23.3-21.3-48.7-.5-.8-1-1.7-1.5-2.6L1060.6 738l-1.2-2c-14.7-24.9-22.1-37.5-31.6-42.3-10.6-5.4-23.1-5.4-33.7 0-9.6 5-17.3 18.1-32.6 44.5l-104 178.3-.4.6c-15.3 26.3-22.9 39.5-23.5 50.4-.7 11.9 5.4 22.9 15.4 29.3 9 5.9 24.5 5.9 55.6 5.9z" fill="#E84142"/></svg>
