<svg xmlns="http://www.w3.org/2000/svg" viewBox="0 0 1000 1000" width="32" height="32"><circle cx="500" cy="500" r="500" fill="#FF0420"/><path d="M340 640c-44 0-80-10-107-31-27-21-41-51-41-90 0-8 1-18 3-29 5-29 13-65 22-107 27-120 104-180 230-180 34 0 65 6 92 17 28 12 49 29 65 52 15 22 23 48 23 78 0 8-1 17-3 28-6 34-14 70-23 107-27 121-103 181-230 181-10 2-17 2-22 2l-9-28zm44-99c10 0 19-3 27-9 8-6 14-15 17-26 4-17 8-32 11-45 2-13 5-25 7-37 1-4 1-8 1-12 0-14-9-22-26-22-10 0-20 3-28 9-8 6-14 15-17 26l-17 82c-1 4-1 8-1 11 0 15 9 23 26 23z" fill="#FFFFFF"/><path d="M560 656c-3 0-5-1-7-3-2-2-2-4-2-7l3-14 65-307c1-3 2-5 5-7 3-2 6-3 8-3h125c35 0 63 7 84 22 21 14 31 35 31 62 0 8-1 16-3 25-8 37-24 64-48 82-24 17-57 26-99 26h-63l-22 101c-1 3-2 5-5 7-3 2-6 3-8 3h-64zm238-200c13 0 25-4 34-11 9-7 15-17 18-30 1-5 1-10 1-14 0-9-3-15-8-20-6-5-14-7-27-7h-56l-17 82h55z" fill="#FFFFFF"/></svg>
